<?xml version="1.0" encoding="UTF-8" standalone="no"?>
<svg
   xmlns:dc="http://purl.org/dc/elements/1.1/"
   xmlns:cc="http://creativecommons.org/ns#"
   xmlns:rdf="http://www.w3.org/1999/02/22-rdf-syntax-ns#"
   xmlns:svg="http://www.w3.org/2000/svg"
   xmlns="http://www.w3.org/2000/svg"
   xmlns:sodipodi="http://sodipodi.sourceforge.net/DTD/sodipodi-0.dtd"
   xmlns:inkscape="http://www.inkscape.org/namespaces/inkscape"
   width="1028"
   height="640"
   viewBox="0 0 271.99167 169.33333"
   version="1.1"
   id="svg8"
   sodipodi:docname="drawing.svg"
   inkscape:version="1.0.2 (e86c8708, 2021-01-15)"
   inkscape:export-filename="/Users/torres/ias.png"
   inkscape:export-xdpi="96"
   inkscape:export-ydpi="96">
  <defs
     id="defs2" />
  <sodipodi:namedview
     id="base"
     pagecolor="#ffffff"
     bordercolor="#666666"
     borderopacity="1.0"
     inkscape:pageopacity="0.0"
     inkscape:pageshadow="2"
     inkscape:zoom="0.3155222"
     inkscape:cx="389.56969"
     inkscape:cy="855.66835"
     inkscape:document-units="mm"
     inkscape:current-layer="layer1"
     inkscape:document-rotation="0"
     showgrid="false"
     inkscape:window-width="1252"
     inkscape:window-height="907"
     inkscape:window-x="0"
     inkscape:window-y="25"
     inkscape:window-maximized="0"
     inkscape:snap-intersection-paths="true"
     inkscape:object-paths="true"
     inkscape:snap-smooth-nodes="false"
     inkscape:snap-global="false"
     fit-margin-top="0"
     fit-margin-left="0"
     fit-margin-right="0"
     fit-margin-bottom="0"
     units="px" />
  <metadata
     id="metadata5">
    <rdf:RDF>
      <cc:Work
         rdf:about="">
        <dc:format>image/svg+xml</dc:format>
        <dc:type
           rdf:resource="http://purl.org/dc/dcmitype/StillImage" />
        <dc:title></dc:title>
      </cc:Work>
    </rdf:RDF>
  </metadata>
  <g
     inkscape:label="Layer 1"
     inkscape:groupmode="layer"
     id="layer1"
     transform="translate(-66.986543,6.3017634)">
    <rect
       style="fill:#ffffff;fill-opacity:1;stroke:none;stroke-width:0.1;stroke-miterlimit:4;stroke-dasharray:none;stroke-opacity:1"
       id="rect1245"
       width="338.77698"
       height="230.60315"
       x="33.593887"
       y="-36.936672" />
    <g
       id="g1243"
       transform="matrix(7.1224315,0,0,7.1224315,-349.8424,-322.75769)">
      <path
         id="path962"
         style="fill:#9d96e0;fill-opacity:1;stroke:none;stroke-width:0.264583px;stroke-linecap:butt;stroke-linejoin:miter;stroke-opacity:1"
         d="m 80.305043,59.341272 c 0.40652,0.120578 0.80615,0.180867 1.198889,0.180867 0.596,0 1.055919,-0.117133 1.379757,-0.351399 0.323838,-0.234265 0.485757,-0.568438 0.485757,-1.002519 0,-0.378959 -0.117133,-0.675237 -0.351399,-0.888832 -0.230821,-0.213595 -0.611502,-0.373792 -1.142045,-0.480589 l -0.635619,-0.124023 c -0.778589,-0.155029 -1.34186,-0.397908 -1.689813,-0.728636 -0.347954,-0.330728 -0.521931,-0.790647 -0.521931,-1.379756 0,-0.682127 0.239433,-1.21956 0.7183,-1.6123 0.482312,-0.392739 1.145491,-0.589109 1.989537,-0.589109 0.361733,0 0.730357,0.03273 1.105872,0.09819 0.389666,0.07477 1.15238,0.294549 1.15238,0.294549 2.535878,0.728003 0.846264,-3.407095 -3.279249,-4.241706 -4.125514,-0.834612 -5.066274,1.234524 -5.631907,2.569384 -0.565633,1.33486 -0.265732,3.915381 0.891903,5.385634 1.157635,1.470253 3.08417,2.332812 3.08417,2.332812 0,0 0.838878,0.416855 1.245398,0.537433 z"
         sodipodi:nodetypes="sssscccsscsccssscs" />
      <path
         id="path962-3"
         style="fill:#e09696;fill-opacity:1;stroke:none;stroke-width:0.264583px;stroke-linecap:butt;stroke-linejoin:miter;stroke-opacity:1"
         d="m 82.338894,64.120411 c 4.125514,0.834612 5.066273,-1.234524 5.631907,-2.569384 0.565633,-1.33486 0.265732,-3.915381 -0.891903,-5.385634 -1.157635,-1.470253 -3.08417,-2.361232 -3.08417,-2.361232 0,0 -0.769976,-0.359148 -1.121374,-0.452165 -0.351399,-0.09302 -0.69074,-0.139526 -1.018023,-0.139526 -0.568439,0 -1.007687,0.110243 -1.317745,0.330728 -0.306613,0.220485 -0.459919,0.533988 -0.459919,0.940508 0,0.341063 0.10163,0.599445 0.30489,0.775144 0.206705,0.172254 0.596,0.31178 1.167884,0.418578 l 0.630451,0.12919 c 0.778589,0.148139 1.352195,0.409965 1.720819,0.78548 0.372069,0.372069 0.558104,0.871606 0.558104,1.498611 0,0.747583 -0.251491,1.3143 -0.754474,1.70015 -0.499537,0.385849 -1.23334,0.578774 -2.201409,0.578774 -0.365179,0 -0.754473,-0.04134 -1.167883,-0.124023 -0.409965,-0.08268 -1.276404,-0.366904 -1.276404,-0.366904 -2.535878,-0.728004 -0.846265,3.407094 3.279249,4.241705 z"
         sodipodi:nodetypes="ssscsscsccccscsccs" />
      <ellipse
         style="fill:#493cc5;fill-opacity:1;stroke:none;stroke-width:0.30441;stroke-opacity:1"
         id="path1105"
         cx="42.965557"
         cy="82.860809"
         rx="2.1255298"
         ry="1.0899084"
         transform="rotate(-29.614708)" />
      <ellipse
         style="fill:#c53a3a;fill-opacity:1;stroke:none;stroke-width:0.30441;stroke-opacity:1"
         id="path1105-0"
         cx="43.127735"
         cy="95.637482"
         rx="2.1255298"
         ry="1.0899084"
         transform="rotate(-29.614708)" />
      <text
         xml:space="preserve"
         style="font-style:normal;font-weight:normal;font-size:13.939px;line-height:1.25;font-family:sans-serif;fill:#000000;fill-opacity:1;stroke:none;stroke-width:0.348476"
         x="65.672951"
         y="60.164143"
         id="text1221"><tspan
           sodipodi:role="line"
           id="tspan1219"
           x="65.672951"
           y="60.164143"
           style="stroke-width:0.348476">ia</tspan></text>
    </g>
  </g>
</svg>
